# xmcd
#
# Track frame offsets:
#	150
#	20266
#	35866
#	47200
#	64618
#	81136
#	107544
#	123586
#	137955
#	154664
#	169382
#	185818
#	198751
#	218917
#
# Disc length: 3137 seconds
#
# Revision: 1
# Processed by: cddbd v1.4PL0 Copyright (c) Steve Scherf et al.
# Submitted via: EasyCDDAExtractor 6.2.0.3
#
DISCID=ca0c3f0e
DTITLE=Revelação - Novos Tempos
DYEAR=2003
DGENRE=Pagade
TTITLE0=Novos Tempos
TTITLE1=Horizonte De Emoção
TTITLE2=Pagodeando Eu Vou
TTITLE3=Desengano
TTITLE4=Flagrante
TTITLE5=O Samba Vem Me Chamar-Samba De Coração
TTITLE6=Primeira Estrela
TTITLE7=Sem Você
TTITLE8=Nossa Batucada
TTITLE9=Indecisão
TTITLE10=Preciso Tanto Te Encontrar
TTITLE11=Gosto Como Ninguém
TTITLE12=Quem É De Deus
TTITLE13=Jogo De Sedução
EXTD=
EXTT0=
EXTT1=
EXTT2=
EXTT3=
EXTT4=
EXTT5=
EXTT6=
EXTT7=
EXTT8=
EXTT9=
EXTT10=
EXTT11=
EXTT12=
EXTT13=
PLAYORDER=
